<?xml version="1.0" encoding="utf-8"?>
<!-- Generator: Adobe Illustrator 25.2.0, SVG Export Plug-In . SVG Version: 6.00 Build 0)  -->
<svg version="1.1" id="Layer_1" xmlns="http://www.w3.org/2000/svg" xmlns:xlink="http://www.w3.org/1999/xlink" x="0px" y="0px"
	 viewBox="0 0 1162.2 537.2" style="enable-background:new 0 0 1162.2 537.2;" xml:space="preserve">
<style type="text/css">
	.st0{fill:#222222;}
</style>
<g>
	<g>
		<path class="st0" d="M1095.1,13.5H67.1c-30.4,0-55,24.6-55,54.9v400.4c0,30.3,24.6,55,55,55h1028c30.3,0,55-24.7,55-55V68.4
			C1150.1,38.1,1125.4,13.5,1095.1,13.5z M1141.5,468.7c0,25.5-20.8,46.3-46.3,46.3H67.1c-25.5,0-46.3-20.8-46.3-46.3V68.4
			c0-25.5,20.8-46.2,46.3-46.2h1028c25.5,0,46.3,20.7,46.3,46.2V468.7z"/>
	</g>
	<path class="st0" d="M340,344.6L293,297.5V143.6c7.1-2.7,12.1-9.6,12.1-17.6c0-10.4-8.5-18.9-18.9-18.9c-10.4,0-18.9,8.5-18.9,18.9
		c0,8.2,5.2,15.2,12.6,17.8v209.4v30.1v1.1c0,5.4,2.1,10.6,6,14.4c4,4,9.2,5.9,14.4,5.9c5.2,0,10.4-2,14.4-5.9
		c7.9-7.9,7.9-20.8,0-28.8L293,348.3V316l37.8,37.8c16.8,16.8,16.8,44.2,0,61.1c-16.8,16.8-44.2,16.8-61.1,0
		c-8.2-8.2-12.7-19-12.7-30.5V109c7.1-2.7,12.2-9.6,12.2-17.6c0-10.4-8.5-18.9-18.9-18.9c-10.4,0-18.9,8.5-18.9,18.9
		c0,8.2,5.2,15.1,12.5,17.7v139.4l-53.1-53.1v-66.6c0-15-5.9-29.2-16.5-39.8c-10.6-10.6-24.8-16.5-39.8-16.5
		c-15,0-29.2,5.9-39.8,16.5c-21.9,21.9-21.9,57.6,0,79.6l47.1,47.1v153.8c-7.2,2.7-12.3,9.6-12.3,17.7c0,10.4,8.5,18.9,18.9,18.9
		c10.4,0,18.9-8.5,18.9-18.9c0-8.1-5.2-15-12.4-17.7V228.7l22.8,22.8V404c-7.2,2.7-12.4,9.6-12.4,17.7c0,10.4,8.5,18.9,18.9,18.9
		c10.4,0,18.9-8.5,18.9-18.9c0-8.1-5.1-15-12.3-17.7V264.6l53.1,53.1v66.6c0,15,5.8,29.2,16.5,39.8c11,11,25.4,16.5,39.8,16.5
		c14.4,0,28.8-5.5,39.8-16.5C362,402.2,362,366.5,340,344.6z M286.2,118.2c4.3,0,7.8,3.5,7.8,7.8c0,4.3-3.5,7.8-7.8,7.8
		c-4.3,0-7.8-3.5-7.8-7.8C278.4,121.7,281.9,118.2,286.2,118.2z M305.4,379.2c2.8,2.8,2.8,7.5,0,10.3c-2.8,2.8-7.5,2.8-10.3,0
		c-1.4-1.4-2.1-3.2-2.1-5.2v-1.1v-16.5L305.4,379.2z M148.5,395c-4.3,0-7.8-3.5-7.8-7.8c0-4.3,3.5-7.8,7.8-7.8
		c4.3,0,7.8,3.5,7.8,7.8C156.3,391.5,152.8,395,148.5,395z M184.3,429.5c-4.3,0-7.8-3.5-7.8-7.8c0-4.3,3.5-7.8,7.8-7.8
		c4.3,0,7.8,3.5,7.8,7.8C192.1,426,188.6,429.5,184.3,429.5z M244,299.3L104.1,159.4c-8.2-8.2-12.6-19-12.6-30.5
		c0-11.5,4.5-22.4,12.6-30.6c16.8-16.8,44.3-16.8,61.1,0c8.2,8.2,12.7,19,12.7,30.6v53.5L155,159.5v-30.6c0-5.4-2.1-10.6-6-14.4
		c-7.9-7.9-20.8-7.9-28.8,0c-7.9,7.9-7.9,20.8,0,28.8L244,267V299.3z M141.9,128.8v17.6L129.5,134c-2.8-2.8-2.8-7.5,0-10.3
		c2.8-2.8,7.5-2.8,10.3,0C141.1,125,141.9,126.9,141.9,128.8z M250.4,83.6c4.3,0,7.8,3.5,7.8,7.8c0,4.3-3.5,7.8-7.8,7.8
		c-4.3,0-7.8-3.5-7.8-7.8C242.6,87.1,246.1,83.6,250.4,83.6z"/>
	<g>
		<g>
			<path class="st0" d="M480.7,192.4h47.9v-49.6h25.2V267h-25.2v-53.3h-47.9V267h-25.3V142.7h25.3V192.4z"/>
			<path class="st0" d="M662.2,142.7L711.7,267h-27.5l-10.7-28.3h-51.6L611.4,267H585l49.1-124.3H662.2z M629.7,218.6h36.1l-10-28.5
				c-1.2-4-2.6-8.1-3.9-12.1c-1.4-4.6-2.8-9.2-4.1-13.9c-1.2,4.4-2.3,8.6-3.7,12.8c-1.2,3.9-2.5,7.7-3.9,11.8L629.7,218.6z"/>
			<path class="st0" d="M812.3,142.7V164h-43.6v29.6h41.9V214h-41.9v53h-25.4V142.7H812.3z"/>
			<path class="st0" d="M916,165.4c-1.8-0.7-3.5-1.6-5.3-2.3c-2.6-0.9-10.4-3.3-18.8-3.2c-1.1,0-14.8-0.4-19.5,8.3
				c-0.7,1.1-1.8,3.5-1.8,6.9c0,2.1,0.5,6.7,4.9,10.2c2.6,2.1,6.7,3.9,13.6,6.5c5.4,2.1,11.1,4,16.4,6.9c6.5,3.3,20.8,11.4,20.8,32
				c0,16.9-10.2,30.3-26.2,35.4c-6.3,1.9-13.2,2.5-19.7,2.5c-13,0-20.3-1.6-32.6-4.9l2.1-22.5c2.3,1.2,4.4,2.5,6.7,3.3
				c5.8,2.5,15.3,4.2,21.6,4.2c2.3,0,14.6,0.2,19.9-9.2c1.8-3,1.9-6,1.9-7.2c0-3.3-1.2-5.6-1.9-6.9c-2.5-4.6-6.5-6.5-15.8-10.4
				c-6.3-2.5-12.7-4.9-18.7-8.1c-12-6.5-18.7-15.7-18.7-29.7c0-4.8,0.5-16.7,10.7-26c12-10.9,28.3-10.6,32.9-10.6
				c11.8,0,18.3,1.4,29.7,4.2L916,165.4z"/>
			<path class="st0" d="M1020.6,142.7l49.5,124.3h-27.5l-10.7-28.3h-51.6L969.8,267h-26.4l49.1-124.3H1020.6z M988.1,218.6h36.1
				l-10-28.5c-1.2-4-2.6-8.1-3.9-12.1c-1.4-4.6-2.8-9.2-4.1-13.9c-1.2,4.4-2.3,8.6-3.7,12.8c-1.2,3.9-2.5,7.7-3.9,11.8L988.1,218.6z
				"/>
		</g>
		<g>
			<path class="st0" d="M617.4,377.7v-9.1c1.1,1,2.2,1.7,3.2,2.2c1.1,0.5,2.1,0.7,3.2,0.7c1.5,0,2.6-0.4,3.5-1.2
				c0.9-0.8,1.3-1.8,1.3-3.2c0-1.7-1.2-3.5-3.5-5.4c-0.6-0.5-1.1-1-1.4-1.3c-2.7-2.4-4.5-4.6-5.5-6.5c-1-1.9-1.5-4.1-1.5-6.5
				c0-3.8,1.1-6.8,3.2-9.2c2.1-2.3,4.9-3.5,8.4-3.5c1.2,0,2.4,0.2,3.6,0.5c1.2,0.4,2.4,0.9,3.8,1.6v7.8c-1.5-0.7-2.7-1.3-3.6-1.5
				c-0.9-0.3-1.6-0.4-2.3-0.4c-1.3,0-2.3,0.4-3.1,1.2c-0.8,0.8-1.2,1.8-1.2,3.1c0,1.1,0.3,2.2,0.9,3.1c0.6,1,2,2.4,4.2,4.3
				c2.9,2.5,4.8,4.6,5.7,6.3s1.3,3.7,1.3,6.1c0,4-1.1,7.1-3.4,9.4c-2.3,2.3-5.3,3.5-9.2,3.5c-1.5,0-2.8-0.2-4.1-0.5
				C619.7,378.9,618.5,378.4,617.4,377.7z"/>
			<path class="st0" d="M679.7,357.9c0,6.7-1.4,12-4.2,15.9c-2.8,3.9-6.5,5.9-11.2,5.9c-4.8,0-8.6-2-11.3-5.9
				c-2.7-4-4.1-9.4-4.1-16.5c0-7,1.4-12.5,4.1-16.5c2.7-4,6.5-6,11.3-6c4.8,0,8.6,2,11.3,6.1C678.3,345,679.7,350.7,679.7,357.9z
				 M664.2,371.4c2.2,0,3.9-1.2,5-3.5c1.1-2.3,1.7-5.9,1.7-10.6c0-4.7-0.6-8.3-1.7-10.6c-1.1-2.3-2.8-3.5-5-3.5
				c-2.2,0-3.9,1.2-5,3.5c-1.1,2.3-1.7,5.9-1.7,10.6c0,4.7,0.5,8.3,1.7,10.6C660.3,370.2,662,371.4,664.2,371.4z"/>
			<path class="st0" d="M693,379.2v-43.8h18.9v8.1h-10.4v9.1h9.5v8.1h-9.5v18.6H693z"/>
			<path class="st0" d="M729,379.2v-35.7h-6.7v-8.1h22.2v8.1h-6.7v35.7H729z"/>
			<path class="st0" d="M753.4,335.4h8.9l3.1,19.8c0.3,1.8,0.6,3.8,0.8,6c0.2,2.2,0.4,4.7,0.6,7.4l5.7-33.1h7.3l5.7,33.1
				c0-1.9,0.1-3.9,0.2-6c0.2-2,0.4-4.1,0.7-6.2l3.2-21h8.6l-8.8,43.8h-7.7l-4.7-24.2c-0.2-1.2-0.4-2.6-0.6-4.3
				c-0.2-1.7-0.3-3.5-0.4-5.5c-0.2,2.2-0.4,4.1-0.6,5.8c-0.2,1.7-0.4,3-0.6,4l-4.9,24.2h-7.9L753.4,335.4z"/>
			<path class="st0" d="M804.9,379.2l10.2-43.8h9.2l9.7,43.8h-8.7l-1.5-7.7H815l-1.4,7.7H804.9z M816.6,364.7h5.8
				c-0.6-3.1-1.1-6.3-1.6-9.6c-0.5-3.4-0.9-6.9-1.3-10.6c-0.4,3.3-0.9,6.6-1.4,10C817.6,357.8,817.1,361.2,816.6,364.7z"/>
			<path class="st0" d="M845.1,379.2v-43.8h9.1c5,0,8.6,1,10.9,2.9c2.2,2,3.4,5.1,3.4,9.4c0,3.1-0.6,5.6-1.7,7.5
				c-1.2,1.9-2.9,3.2-5.2,4l8.4,20h-9.2l-7.1-18.1v18.1H845.1z M853.6,354.4c0.1,0,0.3,0,0.5,0c0.2,0,0.4,0,0.5,0
				c1.9,0,3.3-0.5,4.3-1.6c1-1.1,1.4-2.6,1.4-4.7c0-2.1-0.4-3.6-1.3-4.6c-0.9-1-2.3-1.4-4.2-1.4c-0.3,0-0.5,0-0.7,0
				c-0.2,0-0.3,0-0.5,0L853.6,354.4z"/>
			<path class="st0" d="M881.3,379.2v-43.8h18.4v8.1h-10v8.9h9v8h-9v10.3h10v8.6H881.3z"/>
		</g>
		<path class="st0" d="M602,366.7c-48.9-2.9-97.8-5.9-146.6-8.8c48.9-3.2,97.8-6.4,146.6-9.6V366.7z"/>
		<path class="st0" d="M926.2,348.3c48.9,2.9,97.8,5.9,146.6,8.8c-48.9,3.2-97.8,6.4-146.6,9.6V348.3z"/>
	</g>
	<rect x="405.7" y="13.5" class="st0" width="10.3" height="510.2"/>
</g>
</svg>
